HIERARCHY
ROOT Hips
{
	OFFSET 0.00000 0.00000 0.00000
	CHANNELS 6 Xposition Yposition Zposition Zrotation Yrotation Xrotation 
	JOINT LHipJoint
	{
		OFFSET 0 0 0
		CHANNELS 3 Zrotation Yrotation Xrotation
		JOINT LeftHip
		{
			OFFSET 1.59801 -1.77853 0.57028
			CHANNELS 3 Zrotation Yrotation Xrotation
			JOINT LeftKnee
			{
				OFFSET 2.39439 -6.57854 0.00000
				CHANNELS 3 Zrotation Yrotation Xrotation
				JOINT LeftAnkle
				{
					OFFSET 2.69334 -7.39989 0.00000
					CHANNELS 3 Zrotation Yrotation Xrotation
					JOINT LeftToe
					{
						OFFSET 0.09553 -0.26245 1.73747
						CHANNELS 3 Zrotation Yrotation Xrotation
						End Site
						{
							OFFSET 0.00000 -0.00000 0.89391
						}
					}
				}
			}
		}
	}
	JOINT RHipJoint
	{
		OFFSET 0 0 0
		CHANNELS 3 Zrotation Yrotation Xrotation
		JOINT RightHip
		{
			OFFSET -1.54704 -1.77852 0.57028
			CHANNELS 3 Zrotation Yrotation Xrotation
			JOINT RightKnee
			{
				OFFSET -2.40286 -6.60180 0.00000
				CHANNELS 3 Zrotation Yrotation Xrotation
				JOINT RightAnkle
				{
					OFFSET -2.63873 -7.24984 0.00000
					CHANNELS 3 Zrotation Yrotation Xrotation
					JOINT RightToe
					{
						OFFSET -0.15631 -0.42945 1.84436
						CHANNELS 3 Zrotation Yrotation Xrotation
						End Site
						{
							OFFSET -0.00000 -0.00000 0.95734
						}
					}
				}
			}
		}
	}
	JOINT lowerback
	{
		OFFSET 0 0 0
		CHANNELS 3 Zrotation Yrotation Xrotation
		JOINT Chest
		{
			OFFSET -0.00436 1.89866 -0.04018
			CHANNELS 3 Zrotation Yrotation Xrotation
			JOINT Chest2
			{
				OFFSET 0.02031 1.88273 0.09634
				CHANNELS 3 Zrotation Yrotation Xrotation
				JOINT lowerneck
				{
					OFFSET 0 0 0
					CHANNELS 3 Zrotation Yrotation Xrotation
					JOINT Neck
					{
						OFFSET -0.13105 1.89371 0.23083
						CHANNELS 3 Zrotation Yrotation Xrotation
						JOINT Head
						{
							OFFSET 0.17062 1.83990 -0.54062
							CHANNELS 3 Zrotation Yrotation Xrotation
							End Site
							{
								OFFSET 0.04576 1.94782 -0.21839
							}
						}
					}
				}
				JOINT LeftCollar
				{
					OFFSET 0 0 0
					CHANNELS 3 Zrotation Yrotation Xrotation
					JOINT LeftShoulder
					{
						OFFSET 3.12424 1.09204 0.22226
CHANNELS 3 Zrotation Xrotation Yrotation
						JOINT LeftElbow
						{
OFFSET 0 -5.292770 0.000000
CHANNELS 3 Zrotation Xrotation Yrotation
							JOINT LeftWrist
							{
OFFSET 0 -2.852260 0.000000
CHANNELS 3 Zrotation Xrotation Yrotation
								JOINT lhand
								{
									OFFSET 0 0 0
CHANNELS 3 Zrotation Xrotation Yrotation
									JOINT LFingers
									{
OFFSET 0 -0.602100 0.000000
CHANNELS 3 Zrotation Xrotation Yrotation
										End Site
										{
OFFSET 0 -0.485430 0.000000
										}
									}
								}
								JOINT LThumb
								{
OFFSET 0 0.000000 0.000000
CHANNELS 3 Zrotation Xrotation Yrotation
									End Site
									{
OFFSET 0 -0.492840 0.492840
									}
								}
							}
						}
					}
				}
				JOINT RightCollar
				{
					OFFSET 0 0 0
					CHANNELS 3 Zrotation Yrotation Xrotation
					JOINT RightShoulder
					{
						OFFSET -2.91709 1.01504 0.30199
CHANNELS 3 Zrotation Xrotation Yrotation
						JOINT RightElbow
						{
OFFSET 0 -5.133040 0.000000
CHANNELS 3 Zrotation Xrotation Yrotation
							JOINT RightWrist
							{
OFFSET 0 -2.743050 0.000000
CHANNELS 3 Zrotation Xrotation Yrotation
								JOINT rhand
								{
									OFFSET 0 0 0
CHANNELS 3 Zrotation Xrotation Yrotation
									JOINT RFingers
									{
OFFSET 0 -0.767980 0.000000
CHANNELS 3 Zrotation Xrotation Yrotation
										End Site
										{
OFFSET 0 -0.619160 0.000000
										}
									}
								}
								JOINT RThumb
								{
OFFSET 0 0.000000 0.000000
CHANNELS 3 Zrotation Xrotation Yrotation
									End Site
									{
OFFSET 0 -0.628620 0.628620
									}
								}
							}
						}
					}
				}
			}
		}
	}
}
MOTION
Frames: 9
Frame Time: 0.008333333333333333
0.446537 16.733437 -0.467884 -2.982113 40.837367 -1.349973 0.000000 0.000000 0.000000 -18.176552 -34.637540 -11.049646 4.426481 12.707132 38.281998 -0.227694 -19.339592 -11.563676 0.298018 -3.510119 -9.702330 0.000000 0.000000 0.000000 21.955111 -15.832915 -11.487233 -3.013046 -10.716025 31.328183 -1.563202 -13.261808 -31.637167 -0.098503 2.022589 -5.568123 2.124717 0.896354 -0.386598 3.454210 1.548664 -6.411904 2.328748 0.801308 -6.496065 -17.080517 -10.236062 -7.964527 18.679235 -16.083489 23.035546 7.604106 -7.049156 11.856041 0.000000 0.000000 0.000000 -5.685573 -30.871634 -54.562202 134.788039 -50.871879 97.596875 -43.461567 -13.157463 -34.353323 0.000000 0.000000 0.000000 -7.125000 0.000000 0.000000 -72.198812 51.070346 19.268960 0.000000 0.000000 0.000000 7.190543 -6.270662 37.309042 -141.868779 -46.922683 -102.938560 41.909261 39.302074 -5.409177 0.000000 0.000000 0.000000 7.125000 0.000000 0.000000 41.713055 17.583872 40.063168
0.473876 16.792946 -0.492488 -2.366488 37.117786 -0.690025 0.000000 0.000000 0.000000 -18.440758 -32.641175 -10.532172 4.113172 12.309439 36.835649 -0.035987 -17.564726 -12.004780 0.224133 -3.047535 -8.411015 0.000000 0.000000 0.000000 21.204944 -13.313521 -10.763998 -2.858704 -10.462743 30.488760 -1.453582 -12.703436 -30.482826 -0.111882 2.156695 -5.939033 -0.079249 0.807313 -0.806933 5.051999 1.431057 -6.225593 5.271606 0.918817 -6.167383 -18.938777 -10.369811 -7.720883 17.807626 -15.815452 23.210924 7.624473 -7.198250 11.901795 0.000000 0.000000 0.000000 -8.911990 -31.601627 -53.630858 135.983024 -50.277627 98.520029 -44.009535 -11.769966 -33.344047 0.000000 0.000000 0.000000 -7.125000 0.000000 0.000000 -71.243179 50.424866 17.076121 0.000000 0.000000 0.000000 4.174355 -7.133977 37.374327 -142.412889 -46.573568 -103.334951 42.014511 38.201641 -5.229099 0.000000 0.000000 0.000000 7.125000 0.000000 0.000000 41.786142 17.692126 40.054622
0.520088 16.852593 -0.501155 0.023321 32.988537 0.838251 0.000000 0.000000 0.000000 -20.603755 -30.073618 -9.490303 3.679820 11.721331 34.753597 0.152097 -15.651870 -12.546651 0.233335 -3.108948 -8.582105 0.000000 0.000000 0.000000 18.560949 -10.915545 -10.345473 -2.841102 -10.433296 30.391670 -1.431992 -11.600237 -29.440480 -0.185465 2.773952 -7.650001 -1.529845 0.385531 -1.181382 4.760386 0.776697 -5.984112 5.816790 0.637191 -5.650957 -19.789127 -10.230870 -8.518306 17.311966 -15.328924 23.947166 7.660775 -7.072611 12.272540 0.000000 0.000000 0.000000 -9.737688 -30.519586 -51.979184 136.528989 -49.997069 98.939089 -43.308880 -11.363337 -34.003825 0.000000 0.000000 0.000000 -7.125000 0.000000 0.000000 -71.676255 50.908632 18.539531 0.000000 0.000000 0.000000 3.026785 -9.418901 39.016622 -142.944258 -46.225439 -103.719666 41.059487 37.062585 -4.981529 0.000000 0.000000 0.000000 7.125000 0.000000 0.000000 41.679279 18.480059 38.597768
0.546378 16.894964 -0.528714 0.819785 27.998122 1.540269 0.000000 0.000000 0.000000 -20.962426 -26.764790 -9.625591 3.391111 11.302683 33.307839 0.338721 -13.862633 -13.381658 0.329736 -3.681770 -10.184063 0.000000 0.000000 0.000000 17.428676 -7.359798 -10.423357 -2.906781 -10.542515 30.751951 -1.400077 -10.706273 -28.516994 -0.239240 3.145890 -8.685373 -0.526910 0.695013 -0.980932 3.286413 1.134934 -6.224676 3.670879 0.717032 -5.990179 -18.934734 -10.333642 -7.957348 17.127147 -15.701660 23.759783 7.376263 -7.224828 12.063259 0.000000 0.000000 0.000000 -9.193763 -27.438819 -51.620854 136.724730 -49.895017 99.088902 -43.627544 -11.739327 -33.951814 0.000000 0.000000 0.000000 -7.125000 0.000000 0.000000 -71.790045 50.824943 18.404455 0.000000 0.000000 0.000000 3.759722 -12.072266 39.104916 -143.514309 -45.844214 -104.130032 41.294394 36.963758 -5.096227 0.000000 0.000000 0.000000 7.125000 0.000000 0.000000 41.690738 18.239492 38.996255
0.564713 16.892167 -0.565623 1.256777 22.941038 1.755656 0.000000 0.000000 0.000000 -21.144197 -23.436602 -10.224697 3.350180 11.241458 33.098589 0.595689 -11.964380 -15.049198 0.684512 -5.289766 -14.737004 0.000000 0.000000 0.000000 16.518516 -4.066532 -10.949688 -3.122403 -10.890304 31.911226 -1.378699 -9.573234 -27.502696 -0.364996 3.880201 -10.740031 -0.008682 0.742999 -0.471905 2.520365 1.167687 -6.235158 2.569871 0.676709 -6.261202 -19.305895 -10.238772 -7.868682 17.240692 -15.501913 23.193741 7.493976 -7.186159 11.825542 0.000000 0.000000 0.000000 -9.727727 -23.568268 -51.005599 136.253791 -50.139042 98.728060 -45.004239 -11.991603 -33.675910 0.000000 0.000000 0.000000 -7.125000 0.000000 0.000000 -72.198436 50.438387 17.690915 0.000000 0.000000 0.000000 3.752883 -15.556371 39.914024 -143.685831 -45.728042 -104.252969 40.656827 36.966439 -4.992376 0.000000 0.000000 0.000000 7.125000 0.000000 0.000000 41.592125 18.688878 38.095001
0.578067 16.850282 -0.619934 1.674328 17.777819 2.126015 0.000000 0.000000 0.000000 -21.232988 -20.373759 -11.924195 3.579606 11.578939 34.258256 0.773312 -10.748425 -16.325399 0.752349 -5.539199 -15.453150 0.000000 0.000000 0.000000 15.584115 -0.635140 -12.366495 -3.505480 -11.471470 33.887152 -1.501338 -7.696786 -27.056759 -0.389000 4.004792 -11.090255 0.220445 0.735385 0.078850 1.863847 1.125027 -6.199522 1.752153 0.617245 -6.515976 -19.538207 -10.081879 -8.065860 17.153129 -15.060939 22.209402 7.518424 -7.026043 11.400704 0.000000 0.000000 0.000000 -10.280712 -19.723291 -50.011693 135.267907 -50.636338 97.968573 -44.421103 -10.977070 -33.507656 0.000000 0.000000 0.000000 -7.125000 0.000000 0.000000 -71.671642 50.445244 17.385093 0.000000 0.000000 0.000000 3.674056 -19.379742 40.931486 -143.507558 -45.848905 -104.125235 40.718819 37.160432 -5.020102 0.000000 0.000000 0.000000 7.125000 0.000000 0.000000 41.596574 18.629300 38.196173
0.586438 16.790372 -0.677345 1.451706 12.634285 2.489314 0.000000 0.000000 0.000000 -20.573960 -17.426646 -14.196971 3.922918 12.056960 35.933935 0.901639 -10.178252 -17.337033 0.498876 -4.527098 -12.564634 0.000000 0.000000 0.000000 15.341459 2.783991 -14.094405 -3.886989 -12.008210 35.761451 -1.586243 -5.907936 -26.553901 -0.434347 4.227747 -11.718566 0.667302 0.805929 0.248614 1.399233 1.203578 -6.161635 1.011156 0.612668 -6.554252 -19.856051 -9.919511 -8.225416 17.236420 -14.664730 21.372432 7.629738 -6.872621 11.065900 0.000000 0.000000 0.000000 -10.875360 -17.474990 -49.005461 133.672615 -51.402295 96.728336 -44.531039 -10.901953 -34.000445 0.000000 0.000000 0.000000 -7.125000 0.000000 0.000000 -72.354061 50.694885 18.438364 0.000000 0.000000 0.000000 3.623310 -22.223450 41.994476 -143.087492 -46.130370 -103.823039 40.296039 37.641617 -5.071815 0.000000 0.000000 0.000000 7.125000 0.000000 0.000000 41.488740 18.803696 37.709390
0.602823 16.763041 -0.698505 1.272942 7.810047 2.910264 0.000000 0.000000 0.000000 -20.221276 -14.820097 -15.594369 4.092147 12.282007 36.737012 1.080041 -8.802685 -18.661469 0.568230 -4.826935 -13.415653 0.000000 0.000000 0.000000 15.072365 5.577382 -15.250871 -4.068674 -12.251219 36.626518 -1.631401 -3.960274 -25.828045 -0.582978 4.886948 -13.586694 0.689553 0.516236 0.265148 1.076799 0.792811 -6.281411 0.687266 0.394214 -6.679876 -19.205253 -9.530872 -8.992320 16.385797 -13.854222 21.247453 7.289526 -6.495675 10.858700 0.000000 0.000000 0.000000 -11.021766 -16.025110 -47.678984 133.406290 -51.525624 96.520054 -44.720712 -8.768955 -33.846243 0.000000 0.000000 0.000000 -7.125000 0.000000 0.000000 -72.259313 50.579236 18.084253 0.000000 0.000000 0.000000 3.835155 -23.315773 44.374910 -142.649441 -46.419392 -103.506503 41.005758 38.008522 -5.196471 0.000000 0.000000 0.000000 7.125000 0.000000 0.000000 41.601399 18.304664 38.708633
0.623984 16.780737 -0.690672 0.890028 3.274182 2.887044 0.000000 0.000000 0.000000 -19.951673 -12.395002 -15.750431 4.087419 12.275849 36.714754 1.248991 -6.995319 -19.970660 0.633376 -5.091689 -14.170315 0.000000 0.000000 0.000000 15.173709 7.688437 -15.099649 -3.922889 -12.056948 35.933816 -1.573758 -2.330749 -24.638503 -0.880379 5.981171 -16.729900 1.156247 0.411219 -0.156886 0.760346 0.634783 -6.101657 0.109735 0.278920 -6.234354 -19.624570 -9.355257 -9.534521 16.234971 -13.423220 21.436557 7.364237 -6.329844 10.964464 0.000000 0.000000 0.000000 -11.049297 -16.365696 -47.510858 133.678113 -51.399899 96.732671 -44.853821 -8.692413 -34.462497 0.000000 0.000000 0.000000 -7.125000 0.000000 0.000000 -73.121045 50.885544 19.418820 0.000000 0.000000 0.000000 3.626640 -23.117687 46.021615 -141.795657 -46.969322 -102.885171 40.387572 35.886213 -4.259298 0.000000 0.000000 0.000000 7.125000 0.000000 0.000000 41.767133 19.523762 37.143466
